<svg
   version="1.1"
   id="svg2"
   width="524"
   height="129.33333"
   viewBox="0 0 524 129.33333"
   xmlns="http://www.w3.org/2000/svg"
   >
  <defs
     id="defs6">
    <clipPath
       clipPathUnits="userSpaceOnUse"
       id="clipPath20">
      <path
         d="m 2967,0 v 970 h 963 V 0 Z"
         id="path18" />
    </clipPath>
  </defs>
  <g
     id="g8"

     transform="matrix(1.3333333,0,0,-1.3333333,0,129.33333)">
    <g
       id="g10"
       transform="scale(0.1)">
      <path
         d="m 248.68,396.082 v 0 H 45.9531 c 5.0547,-20.461 15.7657,-37.25 32.1367,-50.371 16.418,-13.125 35.4372,-19.688 57.0622,-19.688 v 0 c 25.231,0 46.856,8.985 64.875,26.946 v 0 c 4.305,3.941 9.434,5.914 15.391,5.914 5.957,0 11.09,-1.973 15.395,-5.914 v 0 c 4.003,-4.289 6.003,-9.406 6.003,-15.344 0,-5.937 -2,-11.051 -6.003,-15.344 v 0 c -27.032,-26.246 -58.918,-39.367 -95.661,-39.367 v 0 c -37.1403,0 -68.9528,13.121 -95.4332,39.367 C 13.2383,348.48 0,380.262 0,417.637 c 0,37.371 13.2383,69.156 39.7188,95.355 26.4804,26.246 58.2929,39.367 95.4332,39.367 37.145,0 68.953,-13.121 95.434,-39.367 26.48,-26.199 39.719,-57.984 39.719,-95.355 v 0 c 0,-5.739 -2.075,-10.778 -6.231,-15.117 -4.156,-4.293 -9.285,-6.438 -15.394,-6.438 z M 45.9531,439.191 v 0 H 224.355 c -5.058,20.457 -15.769,37.25 -32.136,50.372 -16.418,13.125 -35.442,19.687 -57.067,19.687 -21.625,0 -40.6442,-6.562 -57.0622,-19.687 -16.371,-13.122 -27.082,-29.915 -32.1367,-50.372 z M 541.664,289.352 v 0 l -98.363,97.597 -98.36,-97.597 c -4.003,-4.293 -9.062,-6.438 -15.168,-6.438 -6.105,0 -11.164,2.145 -15.168,6.438 v 0 c -4.304,3.992 -6.457,9.031 -6.457,15.117 0,6.09 2.153,11.129 6.457,15.121 v 0 l 97.911,98.047 -97.911,98.047 c -4.304,3.992 -6.457,9.031 -6.457,15.121 0,6.086 2.153,11.125 6.457,15.117 v 0 c 4.004,4.293 9.063,6.437 15.168,6.437 6.106,0 11.165,-2.144 15.168,-6.437 v 0 l 98.36,-97.598 98.363,97.598 c 4.004,4.293 9.059,6.437 15.168,6.437 6.106,0 11.16,-2.144 15.164,-6.437 v 0 c 4.305,-3.992 6.457,-9.031 6.457,-15.117 0,-6.09 -2.152,-11.129 -6.457,-15.121 v 0 l -97.91,-98.047 97.91,-98.047 c 4.305,-3.992 6.457,-9.031 6.457,-15.121 0,-6.086 -2.152,-11.125 -6.457,-15.117 v 0 c -4.004,-4.293 -9.058,-6.438 -15.164,-6.438 -6.109,0 -11.164,2.145 -15.168,6.438 z m 485.496,15.117 v 0 129.336 c 0,20.855 -7.38,38.644 -22.15,53.363 -14.764,14.719 -32.608,22.082 -53.533,22.082 -20.922,0 -38.77,-7.363 -53.536,-22.082 -14.765,-14.719 -22.148,-32.508 -22.148,-53.363 v 0 -129.336 c 0,-5.739 -2.078,-10.778 -6.234,-15.117 -4.153,-4.293 -9.286,-6.438 -15.391,-6.438 -6.109,0 -11.238,2.145 -15.395,6.438 -4.152,4.339 -6.23,9.378 -6.23,15.117 v 0 129.336 c 0,20.855 -7.383,38.644 -22.152,53.363 -14.766,14.719 -32.61,22.082 -53.536,22.082 -20.921,0 -38.765,-7.363 -53.535,-22.082 -14.765,-14.719 -22.148,-32.508 -22.148,-53.363 v 0 -129.336 c 0,-5.739 -2.078,-10.778 -6.234,-15.117 -4.153,-4.293 -9.286,-6.438 -15.391,-6.438 -6.106,0 -11.238,2.145 -15.395,6.438 -4.152,4.339 -6.23,9.378 -6.23,15.117 v 0 226.336 c 0,5.738 2.078,10.777 6.23,15.117 4.157,4.293 9.289,6.437 15.395,6.437 6.105,0 11.238,-2.144 15.391,-6.437 4.156,-4.34 6.234,-9.379 6.234,-15.117 v 0 -5.391 c 21.973,17.965 47.203,26.945 75.683,26.945 v 0 c 19.825,0 38.196,-4.589 55.114,-13.773 16.969,-9.129 31.035,-21.43 42.199,-36.898 v 0 c 11.16,15.468 25.227,27.769 42.195,36.898 16.922,9.184 35.293,13.773 55.114,13.773 v 0 c 32.789,0 60.823,-11.574 84.093,-34.73 23.23,-23.199 34.84,-51.145 34.84,-83.824 v 0 -129.336 c 0,-5.739 -2.07,-10.778 -6.23,-15.117 -4.16,-4.293 -9.29,-6.438 -15.39,-6.438 -6.11,0 -11.24,2.145 -15.4,6.438 -4.15,4.339 -6.23,9.378 -6.23,15.117 z m 318.97,0 v 0 14.519 c -25.93,-24.05 -56.57,-36.074 -91.91,-36.074 v 0 c -37.14,0 -68.95,13.121 -95.43,39.367 -26.48,26.199 -39.72,57.981 -39.72,95.356 0,37.371 13.24,69.156 39.72,95.355 26.48,26.246 58.29,39.367 95.43,39.367 37.14,0 68.95,-13.121 95.43,-39.367 26.48,-26.199 39.72,-57.984 39.72,-95.355 v 0 -113.168 c 0,-5.739 -2.07,-10.778 -6.23,-15.117 -4.16,-4.293 -9.28,-6.438 -15.39,-6.438 -6.11,0 -11.24,2.145 -15.39,6.438 -4.16,4.339 -6.23,9.378 -6.23,15.117 z m -157.08,48.5 c 17.87,-17.961 39.59,-26.946 65.17,-26.946 25.58,0 47.3,8.985 65.17,26.946 17.82,17.965 26.74,39.519 26.74,64.668 0,25.148 -8.92,46.703 -26.74,64.668 -17.87,17.961 -39.59,26.945 -65.17,26.945 -25.58,0 -47.3,-8.984 -65.17,-26.945 -17.82,-17.965 -26.73,-39.52 -26.73,-64.668 0,-25.149 8.91,-46.703 26.73,-64.668 z m 479.79,-30.688 v 0 c -27.03,-26.246 -58.92,-39.367 -95.66,-39.367 v 0 c -37.14,0 -68.95,13.121 -95.43,39.367 -26.48,26.199 -39.72,57.981 -39.72,95.356 0,37.371 13.24,69.156 39.72,95.355 26.48,26.246 58.29,39.367 95.43,39.367 v 0 c 36.74,0 68.63,-13.121 95.66,-39.367 v 0 c 4,-4.293 6.01,-9.406 6.01,-15.344 0,-5.937 -2.01,-11.054 -6.01,-15.343 v 0 c -4.3,-3.942 -9.44,-5.914 -15.39,-5.914 -5.96,0 -11.09,1.972 -15.4,5.914 v 0 c -18.01,17.961 -39.64,26.945 -64.87,26.945 v 0 c -25.58,0 -47.3,-8.984 -65.17,-26.945 -17.82,-17.965 -26.73,-39.52 -26.73,-64.668 0,-25.149 8.91,-46.703 26.73,-64.668 17.87,-17.961 39.59,-26.946 65.17,-26.946 v 0 c 25.23,0 46.86,8.985 64.87,26.946 v 0 c 4.31,3.941 9.44,5.914 15.4,5.914 5.95,0 11.09,-1.973 15.39,-5.914 v 0 c 4,-4.289 6.01,-9.406 6.01,-15.344 0,-5.937 -2.01,-11.051 -6.01,-15.344 z m 303.87,-17.812 v 0 113.168 c 0,25.148 -8.94,46.703 -26.81,64.668 -17.82,17.961 -39.52,26.945 -65.1,26.945 -25.57,0 -47.3,-8.984 -65.17,-26.945 -17.82,-17.965 -26.73,-39.52 -26.73,-64.668 v 0 -113.168 c 0,-5.739 -2.08,-10.778 -6.23,-15.117 -4.16,-4.293 -9.29,-6.438 -15.39,-6.438 -6.16,0 -11.29,2.145 -15.4,6.438 -4.15,4.339 -6.23,9.378 -6.23,15.117 v 0 361.058 c 0,5.739 2.08,10.778 6.23,15.118 4.11,4.293 9.24,6.437 15.4,6.437 6.1,0 11.23,-2.144 15.39,-6.437 4.15,-4.34 6.23,-9.379 6.23,-15.118 v 0 -149.242 c 25.93,24.051 56.56,36.074 91.9,36.074 v 0 c 37.09,0 68.91,-13.121 95.44,-39.367 26.48,-26.199 39.72,-57.984 39.72,-95.355 v 0 -113.168 c 0,-5.739 -2.08,-10.778 -6.23,-15.117 -4.16,-4.293 -9.29,-6.438 -15.4,-6.438 -6.15,0 -11.29,2.145 -15.39,6.438 -4.15,4.339 -6.23,9.378 -6.23,15.117 z m 144.31,348.633 c 4.71,-4.641 7.06,-10.379 7.06,-17.215 0,-6.836 -2.35,-12.574 -7.06,-17.215 -4.65,-4.688 -10.41,-7.035 -17.27,-7.035 -6.86,0 -12.64,2.347 -17.34,7.035 -4.66,4.641 -6.98,10.379 -6.98,17.215 0,6.836 2.32,12.574 6.98,17.215 4.7,4.691 10.48,7.035 17.34,7.035 6.86,0 12.62,-2.344 17.27,-7.035 z m -38.89,-348.633 v 0 226.336 c 0,5.738 2.15,10.777 6.46,15.117 4.35,4.293 9.41,6.437 15.16,6.437 5.76,0 10.79,-2.144 15.09,-6.437 4.36,-4.34 6.54,-9.379 6.54,-15.117 v 0 -226.336 c 0,-5.739 -2.18,-10.778 -6.54,-15.117 -4.3,-4.293 -9.33,-6.438 -15.09,-6.438 -5.75,0 -10.81,2.145 -15.16,6.438 -4.31,4.339 -6.46,9.378 -6.46,15.117 z m 332.48,0 v 0 113.168 c 0,25.148 -8.94,46.703 -26.81,64.668 -17.82,17.961 -39.52,26.945 -65.1,26.945 -25.58,0 -47.3,-8.984 -65.17,-26.945 -17.82,-17.965 -26.73,-39.52 -26.73,-64.668 v 0 -113.168 c 0,-5.739 -2.08,-10.778 -6.24,-15.117 -4.15,-4.293 -9.28,-6.438 -15.39,-6.438 -6.15,0 -11.29,2.145 -15.39,6.438 -4.15,4.339 -6.23,9.378 -6.23,15.117 v 0 226.336 c 0,5.738 2.08,10.777 6.23,15.117 4.1,4.293 9.24,6.437 15.39,6.437 6.11,0 11.24,-2.144 15.39,-6.437 4.16,-4.34 6.24,-9.379 6.24,-15.117 v 0 -14.52 c 25.93,24.051 56.56,36.074 91.9,36.074 v 0 c 37.09,0 68.9,-13.121 95.43,-39.367 26.48,-26.199 39.72,-57.984 39.72,-95.355 v 0 -113.168 c 0,-5.739 -2.07,-10.778 -6.23,-15.117 -4.16,-4.293 -9.28,-6.438 -15.39,-6.438 -6.16,0 -11.29,2.145 -15.39,6.438 -4.16,4.339 -6.23,9.378 -6.23,15.117 z m 318.96,0 v 0 14.519 c -25.98,-24.05 -56.62,-36.074 -91.91,-36.074 v 0 c -37.14,0 -68.95,13.121 -95.43,39.367 -26.48,26.199 -39.72,57.981 -39.72,95.356 0,37.371 13.24,69.156 39.72,95.355 26.48,26.246 58.29,39.367 95.43,39.367 37.09,0 68.9,-13.121 95.43,-39.367 26.48,-26.199 39.72,-57.984 39.72,-95.355 v 0 -113.168 c 0,-5.739 -2.07,-10.778 -6.23,-15.117 -4.15,-4.293 -9.28,-6.438 -15.39,-6.438 -6.16,0 -11.29,2.145 -15.39,6.438 -4.16,4.339 -6.23,9.378 -6.23,15.117 z m -157.08,48.5 c 17.87,-17.961 39.59,-26.946 65.17,-26.946 25.58,0 47.28,8.985 65.1,26.946 17.87,17.965 26.81,39.519 26.81,64.668 0,25.148 -8.94,46.703 -26.81,64.668 -17.82,17.961 -39.52,26.945 -65.1,26.945 -25.58,0 -47.3,-8.984 -65.17,-26.945 -17.82,-17.965 -26.73,-39.52 -26.73,-64.668 0,-25.149 8.91,-46.703 26.73,-64.668"
         style="fill:#3590d5;fill-opacity:1;fill-rule:nonzero;stroke:none"
         id="path12" />
      <g
         id="g14">
        <g
           id="g16"
           clip-path="url(#clipPath20)">
          <path
             d="m 3188.16,879.16 -96.12,-101.269 c -2.57,1.734 -6.07,1.547 -8.42,-0.657 -2.72,-2.543 -2.85,-6.808 -0.3,-9.515 0.12,-0.117 0.26,-0.199 0.38,-0.305 l -78.54,-114.07 c -2.55,1.699 -6.03,1.5 -8.36,-0.692 -2.71,-2.543 -2.84,-6.797 -0.29,-9.504 1.16,-1.23 2.69,-1.898 4.26,-2.05 l -27.4,-274.84 c -1.39,-0.164 -2.73,-0.738 -3.82,-1.758 -2.7,-2.543 -2.83,-6.809 -0.28,-9.516 2.04,-2.156 5.17,-2.636 7.73,-1.453 l 86.35,-113.949 c -0.03,-0.035 -0.06,-0.047 -0.1,-0.082 -5.41,-5.086 -5.67,-13.605 -0.56,-19.012 4.36,-4.629 11.24,-5.472 16.54,-2.437 l 75.44,-103.684 c -2.32,-2.566 -2.33,-6.504 0.09,-9.07 2.55,-2.707 6.82,-2.836 9.54,-0.281 0.38,0.351 0.7,0.761 0.98,1.183 l 275,-106.16775 c 0.04,0 0.06,0 0.1,-0.0117187 0.04,-0.0117188 0.09,-0.02343755 0.14,-0.02343755 0.04,0 0.08,0 0.12,0.01171875 0.03,0 0.07,0 0.1,0.0117188 L 3557.91,34.2188 c 1.04,-2.8594 2.66,-5.5704 4.88,-7.9141 8.74,-9.2578 23.34,-9.6914 32.63,-0.9844 6.24,5.8633 8.46,14.3711 6.59,22.1289 l 117.93,36.086 c 0.29,-0.9493 0.78,-1.8633 1.51,-2.6368 2.55,-2.7109 6.82,-2.8398 9.54,-0.2812 2.71,2.543 2.84,6.7969 0.28,9.4922 -0.19,0.1992 -0.4,0.3633 -0.6,0.5273 l 170.3,210.8363 c 2.45,-1.207 5.49,-0.868 7.61,1.113 2.72,2.543 2.85,6.797 0.28,9.504 -0.83,0.902 -1.88,1.488 -2.98,1.816 l 11.01,141.071 c 3.19,0.082 6.36,1.289 8.87,3.632 5.42,5.098 5.67,13.61 0.57,19.012 -2.19,2.309 -4.98,3.668 -7.9,4.09 l 5.07,126.852 c 1.26,0.222 2.47,0.785 3.47,1.722 2.71,2.555 2.84,6.813 0.28,9.508 -1.95,2.074 -4.9,2.625 -7.41,1.629 L 3761.2,855.285 c 2.34,2.567 2.37,6.52 -0.07,9.098 -2.55,2.695 -6.81,2.824 -9.52,0.293 l -125.87,54.344 c 1.78,4.089 1.07,9 -2.19,12.457 -4.37,4.617 -11.67,4.839 -16.3,0.48 -1.59,-1.477 -2.64,-3.305 -3.19,-5.238 l -128.49,36.144 c 0.11,1.782 -0.48,3.61 -1.8,5.028 -2.57,2.695 -6.84,2.824 -9.55,0.281 -1.59,-1.5 -2.27,-3.574 -2.06,-5.59 l -123.81,-40.609 c -0.58,1.16 -1.33,2.25 -2.27,3.246 -5.12,5.402 -13.65,5.66 -19.07,0.562 -3.16,-2.965 -4.56,-7.09 -4.17,-11.086 l -113.12,-28.761 c -0.29,0.574 -0.63,1.125 -1.09,1.617 -2.57,2.707 -6.83,2.836 -9.54,0.281 -2.46,-2.297 -2.77,-5.988 -0.93,-8.672 z m 631.7,-137.625 c -0.93,-1.055 -1.48,-2.32 -1.63,-3.633 l -260.01,30.907 c 0.34,2.004 -0.22,4.125 -1.72,5.718 -0.34,0.364 -0.71,0.668 -1.11,0.938 l 24.26,59.383 31.79,77.855 c 3.82,-1.289 8.17,-0.527 11.37,2.297 z m 86.82,-282.351 c 1.34,-1.418 2.91,-2.473 4.59,-3.176 l -48.71,-108.547 -57.04,-127.113 c -1.57,0.328 -3.21,0.082 -4.65,-0.703 l -49.76,233.375 c 3.2,1.007 6.24,2.707 8.85,5.156 4.52,4.254 6.93,9.89 7.22,15.637 l 135.89,-6.508 c 0.23,-2.93 1.43,-5.813 3.61,-8.121 z M 3301.29,73.0313 c 0.79,1.207 1.13,2.6132 1.06,4.0195 L 3516.6,204.164 c 0.53,-0.949 1.16,-1.851 1.95,-2.684 3.22,-3.41 7.79,-4.757 12.11,-4.031 l 17.3,-61.047 20.97,-73.9528 c -1.84,-0.9492 -3.57,-2.1562 -5.15,-3.6328 -4.53,-4.2422 -6.94,-9.8789 -7.22,-15.6211 l -132.09,15.4453 z m -233.22,169.3747 -54.38,256.039 c 1.03,0.164 2.01,0.586 2.89,1.219 L 3199.24,336.34 c -2.05,-2.016 -2.51,-5.027 -1.38,-7.524 l -52.7,-39.027 -65.63,-48.613 c -3.46,2.121 -7.68,2.531 -11.46,1.23 z m 24.8,525.032 c 0.32,0.304 0.59,0.621 0.84,0.96 l 113.69,-84.125 c -2.88,-4.863 -2.44,-11.179 1.43,-15.621 L 3190.91,653.871 3016.8,510.352 c -0.8,0.621 -1.69,1.066 -2.64,1.277 l 72.95,254.109 c 2.01,-0.34 4.16,0.2 5.76,1.7 z m 725.33,-30.965 c 0.14,-1.442 0.71,-2.848 1.78,-3.985 1.24,-1.312 2.88,-2.004 4.56,-2.086 l -49.24,-157.418 -23.84,-76.238 c -5.91,1.957 -12.44,1.465 -18.06,-1.476 l -32.96,49.925 -144.83,219.36 c 0.21,0.152 0.42,0.281 0.61,0.468 0.74,0.692 1.27,1.524 1.62,2.415 z m -20.44,-524.926 -255.98,0.539 c -0.29,2.836 -1.47,5.602 -3.58,7.84 -0.51,0.539 -1.05,1.008 -1.63,1.441 l 5.93,7.176 188.1,227.77 c 5.61,-4.055 12.64,-5.309 19.14,-3.692 l 49.86,-233.867 c -0.03,-0.035 -0.07,-0.059 -0.1,-0.082 -2.01,-1.887 -2.59,-4.688 -1.74,-7.125 z M 3300.55,81.2852 c -2.28,2.414 -5.94,2.7656 -8.62,0.9843 l -21.81,62.8985 -62.64,180.672 c 0.39,0.246 0.77,0.527 1.13,0.855 0.9,0.844 1.49,1.887 1.81,3 l 305.2,-114.609 c -1.08,-3.117 -0.96,-6.574 0.35,-9.645 L 3302.09,78.5508 c -0.28,0.9883 -0.78,1.9375 -1.54,2.7344 z M 3017.64,500.613 c 2.22,2.473 2.3,6.176 0.17,8.742 l 134.01,110.461 58.01,47.805 c 2.33,-2.168 5.24,-3.367 8.23,-3.578 l -4.67,-107.199 -9.52,-218.547 c -1.22,-0.024 -2.44,-0.363 -3.51,-1.055 z m 187.64,-162.445 14.2,325.852 c 3.15,0.105 6.31,1.3 8.79,3.636 0.14,0.141 0.27,0.282 0.39,0.422 l 157.06,-123.609 46.54,-36.637 c -6.15,-7.746 -6.62,-18.574 -1.22,-26.801 l -81.97,-53.312 -140.4,-91.321 c -0.97,0.938 -2.14,1.536 -3.39,1.77 z m 349.1,425.66 177.77,-269.25 c -1.35,-0.82 -2.63,-1.781 -3.83,-2.906 -4.08,-3.832 -6.44,-8.789 -7.08,-13.922 l -104.99,6.422 -142.82,8.742 c 0.17,5.871 -1.91,11.824 -6.27,16.441 -2.11,2.227 -4.56,3.938 -7.2,5.133 l 90.68,248.797 c 1.27,-0.176 2.56,0 3.74,0.543 z M 3727.34,459.16 c 0.68,-0.715 1.4,-1.371 2.14,-1.98 L 3535.4,222.176 c -3.18,1.933 -7,2.461 -10.54,1.512 l -66.74,248.25 c 2.9,1.031 5.67,2.66 8.05,4.91 4.28,4.007 6.64,9.257 7.14,14.648 l 247.83,-15.164 c -0.38,-6.121 1.65,-12.367 6.2,-17.172 z m -517.76,-123.863 222.27,144.574 c 0.53,-0.703 1.08,-1.394 1.71,-2.051 6.14,-6.492 15.15,-8.629 23.19,-6.316 l 66.77,-248.262 c -1.59,-0.597 -3.09,-1.512 -4.39,-2.742 -1.29,-1.207 -2.26,-2.602 -2.97,-4.09 l -274.54,103.074 -30.93,11.618 c 0.1,1.464 -0.26,2.929 -1.11,4.195 z m 337.1,430.008 c 0.75,-0.785 1.64,-1.325 2.59,-1.676 l -90.62,-248.602 c -8.02,3.071 -17.44,1.571 -24.12,-4.687 -0.48,-0.457 -0.92,-0.938 -1.36,-1.418 l -203.56,160.223 c 2.31,2.918 3.24,6.585 2.77,10.113 l 107.79,29.976 205.67,57.184 c 0.23,-0.387 0.52,-0.762 0.84,-1.113 z M 3082.34,238.926 c -0.5,0.527 -1.04,0.984 -1.58,1.406 l 117.83,87.266 c 0.15,-0.211 0.3,-0.422 0.48,-0.621 1.87,-1.981 4.68,-2.567 7.12,-1.735 l 84.58,-243.9568 c -0.96,-1.0079 -1.54,-2.2305 -1.75,-3.5079 l -156.81,111.2927 -47.94,34.032 c 2.82,4.996 2.22,11.441 -1.93,15.824 z M 3596.39,57.8438 c -6.9,7.3007 -17.46,9.082 -26.17,5.2265 l -38.17,134.6957 c 2.02,0.574 3.93,1.617 5.57,3.14 2.82,2.649 4.23,6.199 4.23,9.774 l 256.61,-0.551 c 0.15,-0.234 0.34,-0.469 0.53,-0.691 L 3597.07,57.0352 c -0.23,0.2695 -0.44,0.539 -0.68,0.8086 z m 306.63,410.8902 -135.83,6.485 c -0.07,5.566 -2.13,11.109 -6.26,15.48 -2.35,2.496 -5.14,4.336 -8.14,5.531 l 6.28,20.098 66.97,214.156 c 0.67,0.118 1.33,0.352 1.94,0.68 l 8.93,-26.641 74.9,-223.503 c -1.64,-0.61 -3.2,-1.547 -4.56,-2.825 -2.73,-2.566 -4.15,-6 -4.23,-9.461 z m -296.27,446.969 c 1,-1.055 2.15,-1.863 3.39,-2.461 l -56,-137.109 c -2.38,0.961 -5.19,0.539 -7.18,-1.324 -0.37,-0.352 -0.69,-0.75 -0.97,-1.172 l -207.11,137.648 c 0.73,1.922 0.98,3.973 0.8,6 l 264.05,4.746 c 0.31,-2.297 1.31,-4.511 3.02,-6.328 z m -61.42,-143.332 c -0.59,-1.488 -0.62,-3.141 -0.1,-4.652 l -313.12,-87.067 c -0.53,2.18 -1.61,4.266 -3.27,6.012 -0.91,0.973 -1.94,1.77 -3.04,2.414 l 5.13,11.414 91.13,202.715 c 4.54,-1.477 9.73,-0.492 13.44,3 1.19,1.102 2.12,2.391 2.8,3.762 z m -228.9,134.399 c 1.26,-1.325 2.73,-2.344 4.3,-3.047 l -96.19,-214 c -4.83,2.156 -10.69,1.359 -14.78,-2.485 -0.59,-0.55 -1.1,-1.148 -1.56,-1.769 l -74.53,55.129 -39.25,29.043 c 0.85,1.933 0.73,4.172 -0.34,6.035 l 220.63,133.344 c 0.49,-0.786 1.06,-1.547 1.72,-2.25 z m -231.59,-140.2 c 0.3,-0.175 0.59,-0.34 0.91,-0.457 l -10.23,-35.64 -62.79,-218.668 c -0.3,0 -0.6,-0.024 -0.9,-0.059 l -8.57,129.574 c 1.01,0.293 1.97,0.774 2.78,1.547 2.72,2.543 2.85,6.797 0.3,9.504 -0.02,0.024 -0.06,0.047 -0.08,0.07 z m -82.85,-127.476 8.43,-127.664 c -0.87,-0.305 -1.69,-0.774 -2.41,-1.442 -2.71,-2.543 -2.83,-6.808 -0.28,-9.515 0.47,-0.493 1,-0.868 1.56,-1.184 l -32.67,-124.754 -1.61,-6.168 z m -23.76,-284.836 c 0.2,0.152 0.4,0.281 0.57,0.445 2.72,2.543 2.85,6.797 0.3,9.504 -0.91,0.961 -2.04,1.582 -3.22,1.887 l 34.73,132.609 c 0.54,-0.164 1.09,-0.281 1.64,-0.316 l 12.09,-56.91 42.39,-199.61 c -0.8,-0.375 -1.56,-0.844 -2.29,-1.383 z M 3164.58,114.52 c -2.35,2.484 -6.15,2.765 -8.86,0.808 l -75.3,103.496 c 0.46,0.328 0.92,0.692 1.34,1.09 0.66,0.609 1.24,1.289 1.74,1.992 l 184.41,-130.8826 21.04,-14.9336 c 0.02,-0.2812 0.05,-0.5507 0.11,-0.8203 l -122.9,32.8985 c 0.58,2.168 0.09,4.582 -1.58,6.352 z m 7.26,-9.329 117.81,-31.5387 c 0.28,-0.5625 0.62,-1.1132 1.08,-1.5937 1.95,-2.0742 4.93,-2.6133 7.42,-1.6172 L 3426.38,6.92188 Z M 3440.61,1.44922 3299.63,71.2969 c 0.2,0.1406 0.39,0.2695 0.57,0.4336 l 256.34,-29.9532 c 0.03,-2.0976 0.34,-4.1835 0.94,-6.2109 z M 3719.67,84.9414 3601.63,48.8086 c -0.78,2.5312 -1.97,4.957 -3.64,7.1484 l 202.05,152.484 c 2.57,-1.957 6.26,-1.851 8.7,0.434 2.36,2.215 2.76,5.719 1.15,8.367 l 87.73,82.356 -168.14,-208.1644 c -2.46,1.3008 -5.59,0.9844 -7.75,-1.0313 -1.55,-1.4648 -2.23,-3.4921 -2.06,-5.4609 z m 179.37,217.9256 -90.01,-84.488 c -0.63,0.668 -1.36,1.184 -2.16,1.535 l 105.76,235.613 c 0.92,-0.269 1.87,-0.445 2.84,-0.515 l -10.99,-140.848 c -1.83,0.141 -3.71,-0.434 -5.15,-1.781 -2.71,-2.555 -2.84,-6.809 -0.29,-9.516 z m 18.39,307.711 c 1.26,-1.336 2.94,-2.039 4.65,-2.109 l -5.07,-126.629 c -1.28,0.047 -2.58,-0.082 -3.83,-0.41 l -83.96,250.543 c 0.05,0.047 0.1,0.082 0.15,0.129 l 42.82,-53.852 45.98,-57.824 c -0.15,-0.117 -0.31,-0.211 -0.46,-0.34 -2.71,-2.555 -2.83,-6.813 -0.28,-9.508 z m -5.45,19.926 -81.63,102.652 c 1.87,2.555 1.71,6.164 -0.54,8.555 -1.65,1.746 -4.01,2.402 -6.2,1.98 l -58.63,103.508 z m -161.32,233.047 c -1.74,-2.559 -1.55,-6.051 0.66,-8.395 2.17,-2.297 5.57,-2.718 8.22,-1.23 l 62.68,-110.668 c -0.45,-0.199 -0.89,-0.457 -1.3,-0.762 l -197.1,173.512 c 0.48,0.551 0.91,1.137 1.26,1.746 z m -288.2,97.625 c 0.3,-0.903 0.77,-1.77 1.48,-2.512 2.55,-2.707 6.82,-2.836 9.53,-0.293 0.93,0.883 1.53,1.949 1.85,3.086 l 128.43,-36.133 c -0.09,-0.621 -0.14,-1.254 -0.12,-1.886 l -41.45,-0.739 -222.72,-4.008 c -0.14,0.668 -0.31,1.336 -0.55,1.981 z m -149.4,-47.887 c 0.2,-1.031 0.53,-2.039 0.99,-3.012 l -220.8,-133.441 c -0.04,0.035 -0.06,0.07 -0.1,0.105 0,0 -0.02,0.024 -0.03,0.036 l 95.98,101.105 c 2.58,-2.437 6.62,-2.496 9.24,-0.035 1.85,1.734 2.46,4.254 1.89,6.551 l 112.83,28.691"
             style="fill:#0741ad;fill-opacity:1;fill-rule:nonzero;stroke:none"
             id="path22" />
        </g>
      </g>
    </g>
  </g>
</svg>
