<svg
   version="1.1"
   id="svg2"
   width="350"
   height="129.33333"
   viewBox="0 0 370 129.33333"
   xmlns="http://www.w3.org/2000/svg"
   >
  <defs
     id="defs6">
    <clipPath
       clipPathUnits="userSpaceOnUse"
       id="clipPath20">
      <path
         d="m 2967,0 v 970 h 963 V 0 Z"
         id="path18" />
    </clipPath>
  </defs>
  <g
     id="g8"

     transform="matrix(1.3333333,0,0,-1.3333333,0,129.33333)">
    <g
       id="g10"
       transform="scale(0.1)">
      <path
         d="m 248.68,396.082 v 0 H 45.9531 c 5.0547,-20.461 15.7657,-37.25 32.1367,-50.371 16.418,-13.125 35.4372,-19.688 57.0622,-19.688 v 0 c 25.231,0 46.856,8.985 64.875,26.946 v 0 c 4.305,3.941 9.434,5.914 15.391,5.914 5.957,0 11.09,-1.973 15.395,-5.914 v 0 c 4.003,-4.289 6.003,-9.406 6.003,-15.344 0,-5.937 -2,-11.051 -6.003,-15.344 v 0 c -27.032,-26.246 -58.918,-39.367 -95.661,-39.367 v 0 c -37.1403,0 -68.9528,13.121 -95.4332,39.367 C 13.2383,348.48 0,380.262 0,417.637 c 0,37.371 13.2383,69.156 39.7188,95.355 26.4804,26.246 58.2929,39.367 95.4332,39.367 37.145,0 68.953,-13.121 95.434,-39.367 26.48,-26.199 39.719,-57.984 39.719,-95.355 v 0 c 0,-5.739 -2.075,-10.778 -6.231,-15.117 -4.156,-4.293 -9.285,-6.438 -15.394,-6.438 z M 45.9531,439.191 v 0 H 224.355 c -5.058,20.457 -15.769,37.25 -32.136,50.372 -16.418,13.125 -35.442,19.687 -57.067,19.687 -21.625,0 -40.6442,-6.562 -57.0622,-19.687 -16.371,-13.122 -27.082,-29.915 -32.1367,-50.372 z M 541.664,289.352 v 0 l -98.363,97.597 -98.36,-97.597 c -4.003,-4.293 -9.062,-6.438 -15.168,-6.438 -6.105,0 -11.164,2.145 -15.168,6.438 v 0 c -4.304,3.992 -6.457,9.031 -6.457,15.117 0,6.09 2.153,11.129 6.457,15.121 v 0 l 97.911,98.047 -97.911,98.047 c -4.304,3.992 -6.457,9.031 -6.457,15.121 0,6.086 2.153,11.125 6.457,15.117 v 0 c 4.004,4.293 9.063,6.437 15.168,6.437 6.106,0 11.165,-2.144 15.168,-6.437 v 0 l 98.36,-97.598 98.363,97.598 c 4.004,4.293 9.059,6.437 15.168,6.437 6.106,0 11.16,-2.144 15.164,-6.437 v 0 c 4.305,-3.992 6.457,-9.031 6.457,-15.117 0,-6.09 -2.152,-11.129 -6.457,-15.121 v 0 l -97.91,-98.047 97.91,-98.047 c 4.305,-3.992 6.457,-9.031 6.457,-15.121 0,-6.086 -2.152,-11.125 -6.457,-15.117 v 0 c -4.004,-4.293 -9.058,-6.438 -15.164,-6.438 -6.109,0 -11.164,2.145 -15.168,6.438 z m 485.496,15.117 v 0 129.336 c 0,20.855 -7.38,38.644 -22.15,53.363 -14.764,14.719 -32.608,22.082 -53.533,22.082 -20.922,0 -38.77,-7.363 -53.536,-22.082 -14.765,-14.719 -22.148,-32.508 -22.148,-53.363 v 0 -129.336 c 0,-5.739 -2.078,-10.778 -6.234,-15.117 -4.153,-4.293 -9.286,-6.438 -15.391,-6.438 -6.109,0 -11.238,2.145 -15.395,6.438 -4.152,4.339 -6.23,9.378 -6.23,15.117 v 0 129.336 c 0,20.855 -7.383,38.644 -22.152,53.363 -14.766,14.719 -32.61,22.082 -53.536,22.082 -20.921,0 -38.765,-7.363 -53.535,-22.082 -14.765,-14.719 -22.148,-32.508 -22.148,-53.363 v 0 -129.336 c 0,-5.739 -2.078,-10.778 -6.234,-15.117 -4.153,-4.293 -9.286,-6.438 -15.391,-6.438 -6.106,0 -11.238,2.145 -15.395,6.438 -4.152,4.339 -6.23,9.378 -6.23,15.117 v 0 226.336 c 0,5.738 2.078,10.777 6.23,15.117 4.157,4.293 9.289,6.437 15.395,6.437 6.105,0 11.238,-2.144 15.391,-6.437 4.156,-4.34 6.234,-9.379 6.234,-15.117 v 0 -5.391 c 21.973,17.965 47.203,26.945 75.683,26.945 v 0 c 19.825,0 38.196,-4.589 55.114,-13.773 16.969,-9.129 31.035,-21.43 42.199,-36.898 v 0 c 11.16,15.468 25.227,27.769 42.195,36.898 16.922,9.184 35.293,13.773 55.114,13.773 v 0 c 32.789,0 60.823,-11.574 84.093,-34.73 23.23,-23.199 34.84,-51.145 34.84,-83.824 v 0 -129.336 c 0,-5.739 -2.07,-10.778 -6.23,-15.117 -4.16,-4.293 -9.29,-6.438 -15.39,-6.438 -6.11,0 -11.24,2.145 -15.4,6.438 -4.15,4.339 -6.23,9.378 -6.23,15.117 z m 318.97,0 v 0 14.519 c -25.93,-24.05 -56.57,-36.074 -91.91,-36.074 v 0 c -37.14,0 -68.95,13.121 -95.43,39.367 -26.48,26.199 -39.72,57.981 -39.72,95.356 0,37.371 13.24,69.156 39.72,95.355 26.48,26.246 58.29,39.367 95.43,39.367 37.14,0 68.95,-13.121 95.43,-39.367 26.48,-26.199 39.72,-57.984 39.72,-95.355 v 0 -113.168 c 0,-5.739 -2.07,-10.778 -6.23,-15.117 -4.16,-4.293 -9.28,-6.438 -15.39,-6.438 -6.11,0 -11.24,2.145 -15.39,6.438 -4.16,4.339 -6.23,9.378 -6.23,15.117 z m -157.08,48.5 c 17.87,-17.961 39.59,-26.946 65.17,-26.946 25.58,0 47.3,8.985 65.17,26.946 17.82,17.965 26.74,39.519 26.74,64.668 0,25.148 -8.92,46.703 -26.74,64.668 -17.87,17.961 -39.59,26.945 -65.17,26.945 -25.58,0 -47.3,-8.984 -65.17,-26.945 -17.82,-17.965 -26.73,-39.52 -26.73,-64.668 0,-25.149 8.91,-46.703 26.73,-64.668 z m 479.79,-30.688 v 0 c -27.03,-26.246 -58.92,-39.367 -95.66,-39.367 v 0 c -37.14,0 -68.95,13.121 -95.43,39.367 -26.48,26.199 -39.72,57.981 -39.72,95.356 0,37.371 13.24,69.156 39.72,95.355 26.48,26.246 58.29,39.367 95.43,39.367 v 0 c 36.74,0 68.63,-13.121 95.66,-39.367 v 0 c 4,-4.293 6.01,-9.406 6.01,-15.344 0,-5.937 -2.01,-11.054 -6.01,-15.343 v 0 c -4.3,-3.942 -9.44,-5.914 -15.39,-5.914 -5.96,0 -11.09,1.972 -15.4,5.914 v 0 c -18.01,17.961 -39.64,26.945 -64.87,26.945 v 0 c -25.58,0 -47.3,-8.984 -65.17,-26.945 -17.82,-17.965 -26.73,-39.52 -26.73,-64.668 0,-25.149 8.91,-46.703 26.73,-64.668 17.87,-17.961 39.59,-26.946 65.17,-26.946 v 0 c 25.23,0 46.86,8.985 64.87,26.946 v 0 c 4.31,3.941 9.44,5.914 15.4,5.914 5.95,0 11.09,-1.973 15.39,-5.914 v 0 c 4,-4.289 6.01,-9.406 6.01,-15.344 0,-5.937 -2.01,-11.051 -6.01,-15.344 z m 303.87,-17.812 v 0 113.168 c 0,25.148 -8.94,46.703 -26.81,64.668 -17.82,17.961 -39.52,26.945 -65.1,26.945 -25.57,0 -47.3,-8.984 -65.17,-26.945 -17.82,-17.965 -26.73,-39.52 -26.73,-64.668 v 0 -113.168 c 0,-5.739 -2.08,-10.778 -6.23,-15.117 -4.16,-4.293 -9.29,-6.438 -15.39,-6.438 -6.16,0 -11.29,2.145 -15.4,6.438 -4.15,4.339 -6.23,9.378 -6.23,15.117 v 0 361.058 c 0,5.739 2.08,10.778 6.23,15.118 4.11,4.293 9.24,6.437 15.4,6.437 6.1,0 11.23,-2.144 15.39,-6.437 4.15,-4.34 6.23,-9.379 6.23,-15.118 v 0 -149.242 c 25.93,24.051 56.56,36.074 91.9,36.074 v 0 c 37.09,0 68.91,-13.121 95.44,-39.367 26.48,-26.199 39.72,-57.984 39.72,-95.355 v 0 -113.168 c 0,-5.739 -2.08,-10.778 -6.23,-15.117 -4.16,-4.293 -9.29,-6.438 -15.4,-6.438 -6.15,0 -11.29,2.145 -15.39,6.438 -4.15,4.339 -6.23,9.378 -6.23,15.117 z m 144.31,348.633 c 4.71,-4.641 7.06,-10.379 7.06,-17.215 0,-6.836 -2.35,-12.574 -7.06,-17.215 -4.65,-4.688 -10.41,-7.035 -17.27,-7.035 -6.86,0 -12.64,2.347 -17.34,7.035 -4.66,4.641 -6.98,10.379 -6.98,17.215 0,6.836 2.32,12.574 6.98,17.215 4.7,4.691 10.48,7.035 17.34,7.035 6.86,0 12.62,-2.344 17.27,-7.035 z m -38.89,-348.633 v 0 226.336 c 0,5.738 2.15,10.777 6.46,15.117 4.35,4.293 9.41,6.437 15.16,6.437 5.76,0 10.79,-2.144 15.09,-6.437 4.36,-4.34 6.54,-9.379 6.54,-15.117 v 0 -226.336 c 0,-5.739 -2.18,-10.778 -6.54,-15.117 -4.3,-4.293 -9.33,-6.438 -15.09,-6.438 -5.75,0 -10.81,2.145 -15.16,6.438 -4.31,4.339 -6.46,9.378 -6.46,15.117 z m 332.48,0 v 0 113.168 c 0,25.148 -8.94,46.703 -26.81,64.668 -17.82,17.961 -39.52,26.945 -65.1,26.945 -25.58,0 -47.3,-8.984 -65.17,-26.945 -17.82,-17.965 -26.73,-39.52 -26.73,-64.668 v 0 -113.168 c 0,-5.739 -2.08,-10.778 -6.24,-15.117 -4.15,-4.293 -9.28,-6.438 -15.39,-6.438 -6.15,0 -11.29,2.145 -15.39,6.438 -4.15,4.339 -6.23,9.378 -6.23,15.117 v 0 226.336 c 0,5.738 2.08,10.777 6.23,15.117 4.1,4.293 9.24,6.437 15.39,6.437 6.11,0 11.24,-2.144 15.39,-6.437 4.16,-4.34 6.24,-9.379 6.24,-15.117 v 0 -14.52 c 25.93,24.051 56.56,36.074 91.9,36.074 v 0 c 37.09,0 68.9,-13.121 95.43,-39.367 26.48,-26.199 39.72,-57.984 39.72,-95.355 v 0 -113.168 c 0,-5.739 -2.07,-10.778 -6.23,-15.117 -4.16,-4.293 -9.28,-6.438 -15.39,-6.438 -6.16,0 -11.29,2.145 -15.39,6.438 -4.16,4.339 -6.23,9.378 -6.23,15.117 z m 318.96,0 v 0 14.519 c -25.98,-24.05 -56.62,-36.074 -91.91,-36.074 v 0 c -37.14,0 -68.95,13.121 -95.43,39.367 -26.48,26.199 -39.72,57.981 -39.72,95.356 0,37.371 13.24,69.156 39.72,95.355 26.48,26.246 58.29,39.367 95.43,39.367 37.09,0 68.9,-13.121 95.43,-39.367 26.48,-26.199 39.72,-57.984 39.72,-95.355 v 0 -113.168 c 0,-5.739 -2.07,-10.778 -6.23,-15.117 -4.15,-4.293 -9.28,-6.438 -15.39,-6.438 -6.16,0 -11.29,2.145 -15.39,6.438 -4.16,4.339 -6.23,9.378 -6.23,15.117 z m -157.08,48.5 c 17.87,-17.961 39.59,-26.946 65.17,-26.946 25.58,0 47.28,8.985 65.1,26.946 17.87,17.965 26.81,39.519 26.81,64.668 0,25.148 -8.94,46.703 -26.81,64.668 -17.82,17.961 -39.52,26.945 -65.1,26.945 -25.58,0 -47.3,-8.984 -65.17,-26.945 -17.82,-17.965 -26.73,-39.52 -26.73,-64.668 0,-25.149 8.91,-46.703 26.73,-64.668"
         style="fill:#3590d5;fill-opacity:1;fill-rule:nonzero;stroke:none"
         id="path12" />
      <g
         id="g14">
      </g>
    </g>
  </g>
</svg>
